# xmcd
#
# Track frame offsets: 
#        150
#        16653
#        32602
#
# Disc length: 649 seconds
#
# Revision: 1
# Processed by: cddbd v1.5.1PL0 Copyright (c) Steve Scherf et al.
# Submitted via: ExactAudioCopy v0.95a4
#
DISCID=13028703
DTITLE=Del Shannon - Walk away
DYEAR=1900
DGENRE=Country
TTITLE0=Walk away
TTITLE1=Nobody's business
TTITLE2=Let's dance
EXTD=
EXTT0=
EXTT1=
EXTT2=
PLAYORDER=
